<svg width="66" height="54" viewBox="0 0 66 54" fill="none" xmlns="http://www.w3.org/2000/svg">
<path d="M60.3512 10.9523H51.1473L46.8282 0H19.4519L15.1328 10.9523H13.7043V5.47616H7.22567V10.9523H5.92887C3.07073 10.9523 0.74707 13.3092 0.74707 16.2083V48.3731C0.74707 51.2919 3.088 53.6663 5.96558 53.6663H60.3145C63.1921 53.6663 65.533 51.2919 65.533 48.3731V16.2083C65.533 13.3092 63.2094 10.9523 60.3512 10.9523ZM9.3852 7.66662H11.5447V10.9523H9.3852V7.66662ZM63.3735 48.3731C63.3735 50.0849 62.0011 51.4759 60.3145 51.4759H5.96558C4.27898 51.4759 2.9066 50.0838 2.9066 48.3731V16.2083C2.9066 14.5184 4.26279 13.1428 5.92887 13.1428H7.22567H13.7043H16.5948L20.9139 2.19046H45.3662L49.6853 13.1428H60.3512C62.0173 13.1428 63.3735 14.5184 63.3735 16.2083V48.3731Z" fill="#003E5C"/>
<path d="M33.1399 9.85596C22.4232 9.85596 13.7041 18.6999 13.7041 29.5701C13.7041 40.4403 22.4232 49.2843 33.1399 49.2843C43.8566 49.2843 52.5757 40.4403 52.5757 29.5701C52.5757 18.6999 43.8566 9.85596 33.1399 9.85596ZM33.1399 47.0938C23.6142 47.0938 15.8636 39.2322 15.8636 29.5701C15.8636 19.908 23.6142 12.0464 33.1399 12.0464C42.6656 12.0464 50.4161 19.908 50.4161 29.5701C50.4161 39.2322 42.6656 47.0938 33.1399 47.0938Z" fill="#003E5C"/>
<path d="M33.1413 16.4292C25.9965 16.4292 20.1841 22.3248 20.1841 29.572C20.1841 36.8191 25.9965 42.7147 33.1413 42.7147C40.2861 42.7147 46.0985 36.8191 46.0985 29.572C46.0985 22.3248 40.2861 16.4292 33.1413 16.4292ZM33.1413 40.5243C27.1874 40.5243 22.3436 35.6111 22.3436 29.572C22.3436 23.5329 27.1874 18.6197 33.1413 18.6197C39.0951 18.6197 43.9389 23.5329 43.9389 29.572C43.9389 35.6111 39.0951 40.5243 33.1413 40.5243Z" fill="#003E5C"/>
<path d="M56.8947 15.3335C54.5128 15.3335 52.5757 17.2983 52.5757 19.7144C52.5757 22.1305 54.5128 24.0953 56.8947 24.0953C59.2767 24.0953 61.2138 22.1305 61.2138 19.7144C61.2138 17.2983 59.2767 15.3335 56.8947 15.3335ZM56.8947 21.9049C55.7038 21.9049 54.7352 20.9225 54.7352 19.7144C54.7352 18.5064 55.7038 17.524 56.8947 17.524C58.0857 17.524 59.0543 18.5064 59.0543 19.7144C59.0543 20.9225 58.0857 21.9049 56.8947 21.9049Z" fill="#003E5C"/>
</svg>
