<svg width="66" height="67" viewBox="0 0 66 67" fill="none" xmlns="http://www.w3.org/2000/svg">
<path d="M16.6392 19.8575C7.83429 19.8575 0.670898 27.1235 0.670898 36.0546C0.670898 41.5996 3.27142 47.5616 8.40034 53.7749C9.1624 54.698 9.9218 55.5535 10.6505 56.3339C7.33896 57.2508 5.35066 58.898 5.35066 60.8206C5.35066 64.2241 11.1666 66.0607 16.6387 66.0607C22.1109 66.0607 27.9268 64.224 27.9268 60.8206C27.9268 58.8996 25.9391 57.2519 22.6297 56.3347C23.9518 54.9189 25.3744 53.2532 26.7243 51.3953C27.0372 50.9645 26.9467 50.3582 26.5221 50.0408C26.0977 49.7238 25.4996 49.8154 25.1867 50.2461C23.557 52.4894 21.7929 54.4609 20.2537 56.0269C20.0772 56.1182 19.9297 56.2632 19.8372 56.446C18.4583 57.8205 17.298 58.8402 16.6396 59.3973C15.9885 58.8456 14.8458 57.8398 13.4846 56.4832C13.3869 56.2661 13.2153 56.0957 13.0059 56.0008C8.68018 51.5875 2.58084 43.9627 2.58084 36.0548C2.58084 28.1921 8.88739 21.7952 16.6391 21.7952C24.3908 21.7952 30.6973 28.1921 30.6973 36.0548C30.6973 39.4886 29.5439 43.1967 27.269 47.0763C26.9994 47.5363 27.1483 48.1307 27.6016 48.4041C28.055 48.6775 28.6411 48.5266 28.9107 48.0667C31.3636 43.8832 32.6074 39.8419 32.6074 36.0548C32.6075 27.1235 25.4441 19.8575 16.6392 19.8575ZM16.0547 61.4122C16.2267 61.5473 16.433 61.6147 16.6392 61.6147C16.8454 61.6147 17.0516 61.5473 17.2237 61.4122C17.3409 61.3202 18.9367 60.0578 21.0639 57.9481C24.285 58.6144 26.0169 59.8973 26.0169 60.8207C26.0169 61.5104 25.0851 62.324 23.585 62.944C21.7451 63.7046 19.2783 64.1235 16.6388 64.1235C10.914 64.1235 7.26073 62.1672 7.26073 60.8207C7.26073 59.896 8.99323 58.6138 12.216 57.9475C14.355 60.0697 15.9532 61.3325 16.0547 61.4122Z" fill="#003E5C"/>
<path d="M16.6391 29.0112C15.1286 29.0112 13.6922 29.4949 12.4853 30.4101C12.063 30.7305 11.9765 31.3375 12.2922 31.766C12.6082 32.1944 13.2067 32.282 13.629 31.9619C14.503 31.2991 15.5439 30.9487 16.639 30.9487C19.4142 30.9487 21.6719 33.2387 21.6719 36.0538C21.6719 38.8687 19.4142 41.1587 16.639 41.1587C13.8638 41.1587 11.6061 38.8685 11.6061 36.0538C11.6061 35.5734 11.6716 35.0985 11.8007 34.6425C11.9462 34.1283 11.6533 33.5918 11.1464 33.4441C10.6396 33.297 10.1106 33.5938 9.96494 34.1079C9.78673 34.738 9.69629 35.3925 9.69629 36.0538C9.69629 39.9369 12.8108 43.0961 16.6392 43.0961C20.4675 43.0961 23.5822 39.937 23.5822 36.0538C23.5821 32.1705 20.4674 29.0112 16.6391 29.0112Z" fill="#003E5C"/>
<path d="M58.2582 28.1428C58.7441 27.614 59.2446 27.0442 59.7466 26.436C63.7227 21.6191 65.7387 16.9886 65.7387 12.6726C65.7387 5.68506 60.134 0 53.245 0C48.2125 0 43.6939 3.038 41.7336 7.73963C41.528 8.23238 41.7554 8.80086 42.241 9.0091C42.7267 9.21735 43.2872 8.98704 43.4926 8.49442C45.1536 4.5112 48.9816 1.9373 53.245 1.9373C59.0809 1.9373 63.8287 6.75325 63.8287 12.6727C63.8287 20.6778 55.543 28.3471 53.2446 30.32C52.7381 29.8858 51.9408 29.1752 51.006 28.2457C50.9128 28.0582 50.7622 27.9096 50.5813 27.8176C47.2838 24.4499 42.6613 18.661 42.6613 12.6727C42.6613 12.1377 42.2339 11.704 41.7063 11.704C41.1789 11.704 40.7512 12.1377 40.7512 12.6727C40.7512 16.9886 42.7672 21.6191 46.7435 26.4361C47.2453 27.044 47.7454 27.6135 48.2311 28.1422C45.7692 28.8925 44.348 30.1696 44.348 31.7074C44.348 33.0043 45.3852 34.1474 47.2688 34.9258C48.8805 35.5919 51.0028 35.9589 53.2449 35.9589C55.4868 35.9589 57.6092 35.5919 59.221 34.9258C61.1042 34.1472 62.1414 33.0042 62.1414 31.7073C62.1413 30.1723 60.719 28.894 58.2582 28.1428ZM53.2448 34.0213C48.7241 34.0213 46.2581 32.4926 46.2581 31.7071C46.2581 31.1954 47.3798 30.259 49.7753 29.7424C51.3871 31.3331 52.5834 32.2783 52.6606 32.3391C52.8328 32.4742 53.0389 32.5417 53.2451 32.5417C53.4513 32.5417 53.6574 32.4742 53.8296 32.3391C53.9068 32.2786 55.1029 31.3332 56.7147 29.7426C57.7819 29.9734 58.7064 30.3116 59.3534 30.7111C59.9033 31.0509 60.2316 31.4233 60.2316 31.7071C60.2313 32.4926 57.7653 34.0213 53.2448 34.0213Z" fill="#003E5C"/>
<path d="M53.2449 7.03564C50.1808 7.03564 47.6877 9.56426 47.6877 12.6726C47.6877 15.7806 50.1806 18.3092 53.2449 18.3092C56.3092 18.3092 58.8022 15.7808 58.8022 12.6726C58.8022 9.56439 56.3092 7.03564 53.2449 7.03564ZM53.2451 16.3718C51.2338 16.3718 49.5978 14.7123 49.5978 12.6724C49.5978 10.6326 51.2339 8.97294 53.2451 8.97294C55.2561 8.97294 56.8923 10.6324 56.8923 12.6724C56.8922 14.7123 55.2561 16.3718 53.2451 16.3718Z" fill="#003E5C"/>
<path d="M40.8569 30.7388H40.4209C40.1034 30.7388 39.7844 30.7601 39.4722 30.8022C38.9495 30.8728 38.582 31.3598 38.6515 31.8903C38.7155 32.3774 39.1256 32.7314 39.597 32.7314C39.639 32.7314 39.6815 32.7287 39.7242 32.7229C39.953 32.6921 40.1875 32.6765 40.421 32.6765H40.8569V32.6763C41.3844 32.6763 41.812 32.2428 41.812 31.7076C41.812 31.1724 41.3844 30.7388 40.8569 30.7388Z" fill="#003E5C"/>
<path d="M37.7004 59.8022C37.6989 59.8022 37.6975 59.8022 37.6959 59.8022L36.4346 59.808C35.9072 59.8105 35.4816 60.2462 35.4839 60.7812C35.4862 61.3147 35.9135 61.7455 36.4388 61.7455C36.4403 61.7455 36.4417 61.7455 36.4433 61.7455L37.7046 61.7397C38.232 61.7372 38.6576 61.3015 38.6553 60.7666C38.653 60.2329 38.2259 59.8022 37.7004 59.8022Z" fill="#003E5C"/>
<path d="M41.9893 43.2861H40.728C40.2005 43.2861 39.7729 43.7199 39.7729 44.2548C39.7729 44.7899 40.2003 45.2236 40.728 45.2236H41.9893C42.5168 45.2236 42.9444 44.79 42.9444 44.2548C42.9444 43.7199 42.517 43.2861 41.9893 43.2861Z" fill="#003E5C"/>
<path d="M36.9299 32.7121C36.5723 32.3191 35.9684 32.2944 35.5804 32.6569C35.2244 32.9899 34.9005 33.3611 34.6179 33.7603C34.3102 34.195 34.4081 34.8003 34.8365 35.1124C35.0051 35.2352 35.1999 35.2943 35.3929 35.2943C35.6899 35.2943 35.9827 35.154 36.1693 34.8906C36.3767 34.5978 36.6143 34.3253 36.8754 34.0809C37.2632 33.7183 37.2875 33.1054 36.9299 32.7121Z" fill="#003E5C"/>
<path d="M42.7452 59.7788C42.7437 59.7788 42.7423 59.7788 42.7407 59.7788L41.4795 59.7846C40.9521 59.7869 40.5265 60.2228 40.5288 60.7577C40.5311 61.2912 40.9584 61.722 41.4837 61.722C41.4852 61.722 41.4866 61.722 41.4882 61.722L42.7494 61.7162C43.2768 61.7139 43.7024 61.2781 43.7001 60.7431C43.6977 60.2096 43.2705 59.7788 42.7452 59.7788Z" fill="#003E5C"/>
<path d="M32.6543 59.8252C32.6527 59.8252 32.6513 59.8252 32.6498 59.8252L31.3885 59.831C30.8611 59.8335 30.4355 60.2692 30.4378 60.8041C30.4402 61.3376 30.8671 61.7684 31.3927 61.7684C31.3942 61.7684 31.3956 61.7684 31.3971 61.7684L32.6584 61.7626C33.1858 61.7602 33.6114 61.3245 33.6092 60.7895C33.6069 60.2559 33.1797 59.8252 32.6543 59.8252Z" fill="#003E5C"/>
<path d="M37.6364 42.4723C37.3364 42.2803 37.0541 42.056 36.7978 41.8061C36.4176 41.4352 35.8129 41.4474 35.4474 41.8327C35.0817 42.2182 35.0935 42.8315 35.4736 43.2023C35.8232 43.5433 36.208 43.849 36.6173 44.1109C36.7755 44.2122 36.9517 44.2604 37.126 44.2604C37.443 44.2604 37.753 44.1006 37.9347 43.8083C38.2162 43.356 38.0825 42.7577 37.6364 42.4723Z" fill="#003E5C"/>
<path d="M35.2882 39.0021C35.2241 38.6682 35.1916 38.3247 35.1916 37.981L35.1918 37.9272C35.198 37.3923 34.7755 36.9536 34.248 36.9474C34.2443 36.9473 34.2405 36.9473 34.2367 36.9473C33.7144 36.9473 33.288 37.3736 33.2819 37.9048L33.2815 37.9811C33.2815 38.449 33.3259 38.9172 33.4134 39.3728C33.5022 39.8353 33.9019 40.1562 34.3497 40.1562C34.4102 40.1562 34.4717 40.1504 34.5333 40.1382C35.0511 40.0358 35.389 39.5272 35.2882 39.0021Z" fill="#003E5C"/>
<path d="M47.0355 43.2861H45.7741C45.2466 43.2861 44.8191 43.7199 44.8191 44.2548C44.8191 44.7899 45.2466 45.2236 45.7741 45.2236H47.0355C47.563 45.2236 47.9905 44.79 47.9905 44.2548C47.9905 43.7199 47.563 43.2861 47.0355 43.2861Z" fill="#003E5C"/>
<path d="M62.3693 45.2584C62.0013 44.9638 61.608 44.6962 61.2 44.4633C60.7409 44.2006 60.1582 44.3657 59.8992 44.8318C59.6404 45.2979 59.803 45.8888 60.2625 46.1512C60.5844 46.3353 60.895 46.5464 61.1854 46.779C61.3609 46.9196 61.5693 46.9876 61.7766 46.9876C62.0588 46.9876 62.3383 46.8611 62.5269 46.6191C62.8538 46.1991 62.7833 45.5898 62.3693 45.2584Z" fill="#003E5C"/>
<path d="M58.8232 60.4726C58.7507 59.9427 58.2679 59.5718 57.7465 59.6456C57.4337 59.6895 57.1134 59.7125 56.794 59.7138L56.6153 59.7147C56.0878 59.7175 55.6623 60.1533 55.6648 60.6881C55.6675 61.2215 56.0945 61.6522 56.6197 61.6522C56.6214 61.6522 56.6229 61.6522 56.6244 61.6522L56.8028 61.6513C57.2061 61.6495 57.6116 61.6204 58.0079 61.5648C58.5305 61.4915 58.8955 61.0024 58.8232 60.4726Z" fill="#003E5C"/>
<path d="M63.0387 57.7485C62.6748 57.3609 62.0702 57.346 61.6886 57.7152C61.4206 57.9741 61.1306 58.2138 60.8264 58.4278C60.3931 58.7325 60.2853 59.3361 60.5857 59.7759C60.7712 60.0473 61.0688 60.1928 61.3714 60.1928C61.5591 60.1928 61.7487 60.1368 61.9147 60.0202C62.2996 59.7494 62.6668 59.4459 63.0061 59.118C63.388 58.7489 63.4025 58.1357 63.0387 57.7485Z" fill="#003E5C"/>
<path d="M64.8967 53.0438C64.3791 52.9448 63.8792 53.2906 63.7815 53.8163C63.7129 54.185 63.6155 54.5508 63.4915 54.9038C63.3144 55.4076 63.5735 55.9618 64.0704 56.1415C64.1763 56.1798 64.2847 56.198 64.3912 56.198C64.7835 56.198 65.1513 55.9508 65.2908 55.5544C65.4481 55.1067 65.5719 54.6426 65.6588 54.1749C65.7561 53.6491 65.4149 53.1426 64.8967 53.0438Z" fill="#003E5C"/>
<path d="M65.4652 49.9304C65.3357 49.473 65.1696 49.0225 64.9709 48.5906C64.7478 48.1057 64.1799 47.8962 63.7015 48.1223C63.2236 48.3486 63.0169 48.9249 63.2399 49.4098C63.3964 49.7498 63.5274 50.1048 63.6293 50.4648C63.7495 50.8897 64.1316 51.1666 64.5468 51.1666C64.6342 51.1666 64.7227 51.1543 64.8107 51.1288C65.3176 50.981 65.6106 50.4446 65.4652 49.9304Z" fill="#003E5C"/>
<path d="M52.0823 43.2861H50.821C50.2935 43.2861 49.866 43.7199 49.866 44.2548C49.866 44.7899 50.2934 45.2236 50.821 45.2236H52.0823C52.6098 45.2236 53.0374 44.79 53.0374 44.2548C53.0374 43.7199 52.6098 43.2861 52.0823 43.2861Z" fill="#003E5C"/>
<path d="M47.7912 59.7549C47.7897 59.7549 47.7883 59.7549 47.7868 59.7549L46.5254 59.7607C45.998 59.763 45.5724 60.1989 45.5747 60.7338C45.5771 61.2673 46.0043 61.6981 46.5296 61.6981C46.5311 61.6981 46.5325 61.6981 46.5341 61.6981L47.7954 61.6923C48.3228 61.6899 48.7484 61.2541 48.7461 60.7192C48.7438 60.1857 48.3166 59.7549 47.7912 59.7549Z" fill="#003E5C"/>
<path d="M57.1694 43.2953C57.0343 43.2891 56.8974 43.2861 56.7628 43.2861H55.8659C55.3384 43.2861 54.9109 43.7199 54.9109 44.2548C54.9109 44.7899 55.3383 45.2236 55.8659 45.2236H56.7628V45.2234C56.8708 45.2234 56.9782 45.2259 57.0849 45.2307C57.0993 45.2314 57.1136 45.2317 57.1279 45.2317C57.6358 45.2317 58.0586 44.8258 58.0811 44.3059C58.1044 43.7713 57.6962 43.3189 57.1694 43.2953Z" fill="#003E5C"/>
<path d="M52.8364 59.7324C52.8349 59.7324 52.8335 59.7324 52.8319 59.7324L51.5706 59.7382C51.0432 59.7406 50.6176 60.1764 50.6199 60.7113C50.6223 61.2448 51.0494 61.6757 51.5748 61.6757C51.5763 61.6757 51.5778 61.6757 51.5792 61.6757L52.8406 61.6698C53.368 61.6674 53.7936 61.2317 53.7913 60.6967C53.789 60.1631 53.3619 59.7324 52.8364 59.7324Z" fill="#003E5C"/>
</svg>
