<svg width="62" height="57" viewBox="0 0 62 57" fill="none" xmlns="http://www.w3.org/2000/svg">
<path d="M60.5215 0.156468C60.1874 -0.0423839 59.7709 -0.0511246 59.4268 0.126968L41.0143 9.69043L22.603 0.126968C22.5885 0.11932 22.5718 0.117134 22.5573 0.110579C22.5039 0.0854493 22.4493 0.0668753 22.3936 0.0504864C22.3624 0.0417457 22.3323 0.0319123 22.3012 0.0253568C22.2399 0.0133383 22.1775 0.00896793 22.1141 0.00678275C22.0862 0.00569015 22.0584 0.00241235 22.0294 0.00350495C21.9693 0.00678272 21.9103 0.0177086 21.8512 0.0308197C21.8178 0.0373753 21.7844 0.0417457 21.7521 0.051579C21.7443 0.0537642 21.7365 0.0537642 21.7298 0.0559494L1.68363 6.6115C1.22814 6.7601 0.921875 7.17747 0.921875 7.64837V54.6298C0.921875 54.9806 1.09338 55.3105 1.38517 55.517C1.57672 55.6514 1.80502 55.7224 2.03555 55.7224C2.1536 55.7224 2.27277 55.7039 2.38748 55.6656L22.0394 49.239L40.59 56.7331C40.6056 56.7396 40.6234 56.7375 40.639 56.7429C40.7615 56.7855 40.8862 56.815 41.0143 56.815C41.1145 56.815 41.2136 56.7986 41.3105 56.7724C41.3417 56.7637 41.3707 56.7495 41.4019 56.7386C41.4464 56.7222 41.4932 56.7101 41.5355 56.6883L60.468 46.855C60.8322 46.6659 61.0605 46.2934 61.0605 45.8891V1.09282C61.0605 0.70932 60.8556 0.354227 60.5215 0.156468ZM3.14923 8.43613L20.9681 2.60934V32.1006C20.4892 32.1858 20.017 32.282 19.5604 32.4C18.9657 32.5551 18.6115 33.1528 18.7697 33.7362C18.9022 34.2257 19.3521 34.5491 19.8455 34.5491C19.9391 34.5491 20.0359 34.5371 20.1317 34.513C20.399 34.4431 20.6908 34.4081 20.9681 34.3513V47.2876L3.14923 53.1133V8.43613ZM23.1954 34.0454C23.5529 34.0181 23.8993 33.9733 24.2657 33.9657C24.8804 33.9525 25.3682 33.4532 25.356 32.8501C25.3426 32.2547 24.847 31.7805 24.2423 31.7805C24.2345 31.7805 24.2256 31.7805 24.2178 31.7805C23.8726 31.7881 23.5329 31.8067 23.1954 31.8296V2.90762L39.9006 11.5839V34.7403C39.1055 34.7064 38.2969 34.6147 37.4494 34.454C36.8436 34.3371 36.2611 34.7261 36.1442 35.3183C36.0273 35.9105 36.4226 36.4841 37.0262 36.5988C38.0129 36.7867 38.9707 36.8785 39.9017 36.9146V54.0912L23.1954 47.3423V34.0454ZM58.8332 45.2303L42.128 53.9066V36.7966C42.5423 36.6119 42.8185 36.1967 42.7817 35.7258C42.7494 35.3172 42.4821 34.9894 42.128 34.8288V11.5839L58.8332 2.90762V45.2303Z" fill="#003E5C"/>
<path d="M13.1719 8.74121C10.1015 8.74121 7.60352 11.1919 7.60352 14.2042C7.60352 16.8428 9.52016 19.0487 12.0582 19.5568V21.8523C12.0582 22.4565 12.5572 22.9449 13.1719 22.9449C13.7867 22.9449 14.2856 22.4565 14.2856 21.8523V19.5568C16.8237 19.0487 18.7403 16.8428 18.7403 14.2042C18.7403 11.1919 16.2423 8.74121 13.1719 8.74121ZM13.1719 17.4819C11.3299 17.4819 9.83087 16.0113 9.83087 14.2042C9.83087 12.397 11.3299 10.9264 13.1719 10.9264C15.0139 10.9264 16.5129 12.397 16.5129 14.2042C16.5129 16.0113 15.0139 17.4819 13.1719 17.4819Z" fill="#003E5C"/>
<path d="M51.1154 29.1427C51.249 29.194 51.386 29.217 51.5208 29.217C51.9662 29.217 52.3861 28.9537 52.5587 28.5221C53.0821 27.2121 53.502 25.7327 53.8094 24.1255C53.923 23.5333 53.5243 22.963 52.9195 22.8505C52.3115 22.7521 51.7335 23.1312 51.6199 23.7245C51.3392 25.1973 50.9572 26.5434 50.485 27.7267C50.2612 28.2872 50.543 28.922 51.1154 29.1427Z" fill="#003E5C"/>
<path d="M15.1828 34.244C13.8386 35.0711 12.6269 36.1069 11.58 37.3252C11.1836 37.7862 11.2437 38.4757 11.7137 38.8646C11.923 39.0372 12.1781 39.1214 12.4309 39.1214C12.7483 39.1214 13.0623 38.9892 13.2828 38.7335C14.1805 37.689 15.2173 36.8007 16.3655 36.096C16.8867 35.7748 17.0437 35.1006 16.7174 34.5893C16.3911 34.078 15.7029 33.9228 15.1828 34.244Z" fill="#003E5C"/>
<path d="M10.5296 40.7282C9.97053 40.4769 9.309 40.7139 9.05174 41.2624C7.90911 43.6945 7.62623 45.6579 7.61398 45.741C7.53046 46.3386 7.95588 46.8882 8.56507 46.9701C8.61629 46.9778 8.66864 46.9811 8.71875 46.9811C9.26557 46.9811 9.74222 46.5855 9.8213 46.0403C9.82352 46.0229 10.0786 44.2955 11.0742 42.1791C11.3314 41.6295 11.0875 40.9816 10.5296 40.7282Z" fill="#003E5C"/>
<path d="M45.9398 35.7596C46.1102 35.7596 46.284 35.7213 46.4454 35.6405C47.8843 34.9183 49.1528 33.8934 50.2141 32.5965C50.5995 32.1256 50.5226 31.4373 50.0426 31.0603C49.5637 30.6856 48.8621 30.7588 48.4768 31.2286C47.6126 32.2851 46.588 33.1144 45.4309 33.6946C44.8829 33.9699 44.6658 34.6277 44.9464 35.1652C45.1447 35.5422 45.5356 35.7596 45.9398 35.7596Z" fill="#003E5C"/>
<path d="M33.4068 33.2499C32.9156 33.0478 32.6283 32.9079 32.6094 32.8981C32.537 32.862 32.4601 32.8325 32.3811 32.8129C31.1749 32.5091 29.9866 32.2688 28.8473 32.0983C28.2404 32.0044 27.6713 32.4163 27.5778 33.0128C27.4853 33.6094 27.9029 34.1677 28.511 34.2584C29.5423 34.4135 30.6192 34.6299 31.7151 34.903C31.8643 34.9729 32.1494 35.1051 32.5481 35.2679C32.6884 35.3258 32.8343 35.3521 32.9769 35.3521C33.4123 35.3521 33.8266 35.1008 34.0048 34.6812C34.242 34.1218 33.9747 33.4815 33.4068 33.2499Z" fill="#003E5C"/>
<path d="M53.1787 20.6839C53.2032 20.685 53.2266 20.6861 53.2511 20.6861C53.8335 20.6861 54.3235 20.2425 54.3614 19.6623C54.4305 18.6123 54.465 17.5012 54.465 16.3627C54.465 15.9835 54.4616 15.599 54.4538 15.2067C54.4427 14.6025 53.9081 14.1436 53.3201 14.1338C52.7054 14.1447 52.2154 14.6429 52.2265 15.246C52.2332 15.6252 52.2376 15.9978 52.2376 16.3627C52.2376 17.4553 52.2042 18.5184 52.1385 19.5236C52.0995 20.1256 52.5651 20.6446 53.1787 20.6839Z" fill="#003E5C"/>
<path d="M10.1576 30.2728C10.3748 30.4859 10.6599 30.5929 10.945 30.5929C11.2301 30.5929 11.5152 30.4859 11.7324 30.2728L13.1724 28.8601L14.6124 30.2728C14.8295 30.4859 15.1146 30.5929 15.3997 30.5929C15.6848 30.5929 15.9699 30.4859 16.1871 30.2728C16.6225 29.8456 16.6225 29.1551 16.1871 28.7279L14.7471 27.3152L16.1871 25.9024C16.6225 25.4752 16.6225 24.7847 16.1871 24.3575C15.7516 23.9303 15.0478 23.9303 14.6124 24.3575L13.1724 25.7702L11.7324 24.3575C11.2969 23.9303 10.5931 23.9303 10.1576 24.3575C9.72219 24.7847 9.72219 25.4752 10.1576 25.9024L11.5976 27.3152L10.1576 28.7279C9.72219 29.154 9.72219 29.8456 10.1576 30.2728Z" fill="#003E5C"/>
</svg>
