<svg width="62" height="57" viewBox="0 0 62 57" fill="none" xmlns="http://www.w3.org/2000/svg">
<path d="M25.2543 6.04146C19.9143 0.627754 9.46459 0 2.06796 0C1.30193 0 0.680176 0.630525 0.680176 1.40753C0.680176 8.9101 1.29633 19.5095 6.63632 24.9261C8.89006 27.2121 12.3455 28.234 15.7704 28.234C19.4924 28.234 23.181 27.0263 25.2543 24.9233C29.2316 20.889 29.9616 10.8133 25.2543 6.04146ZM23.2921 22.9357C20.3223 25.9451 12.0764 26.4603 8.6015 22.9357C4.29113 18.5637 3.54448 9.68156 3.46394 2.82364C10.225 2.90533 18.9817 3.66254 23.292 8.03464C26.767 11.5593 26.2591 19.9262 23.2921 22.9357Z" fill="#003E5C"/>
<path d="M60.4161 5.56836C53.0195 5.56836 42.5698 6.19334 37.2297 11.6098C32.5225 16.3816 33.2524 26.4574 37.2297 30.4917C39.303 32.5919 42.9889 33.7996 46.7108 33.7996C50.1357 33.7996 53.5885 32.7805 55.8477 30.4946C61.1849 25.0781 61.8038 14.4787 61.8038 6.97602C61.8039 6.19902 61.1822 5.56836 60.4161 5.56836ZM53.8799 28.5012C50.405 32.0259 42.1562 31.5107 39.1893 28.5012C36.2223 25.4918 35.7144 17.1249 39.1893 13.6002C43.4997 9.22812 52.2562 8.47091 59.0173 8.38923C58.9369 15.2499 58.1903 24.132 53.8799 28.5012Z" fill="#003E5C"/>
<path d="M50.3946 17.7526C50.0671 17.0459 49.1289 16.8039 48.4378 17.1304C37.7939 22.2062 32.5649 31.0574 30.189 40.1562C27.2497 20.8098 18.7484 14.9119 15.1431 12.4092C14.6934 12.0967 14.3437 11.8687 14.1495 11.6744C13.6083 11.1255 12.7284 11.1255 12.1872 11.6744C11.6459 12.2234 11.6459 13.1159 12.1872 13.6648C12.4619 13.9408 12.9365 14.2871 13.5777 14.7318C17.641 17.5499 28.4348 25.0412 28.4348 54.8968C28.4348 55.6738 29.0566 56.3045 29.8226 56.3045C30.5886 56.3045 31.2104 55.6738 31.2104 54.8997C31.2104 42.8365 34.405 26.9332 49.6202 19.6811C49.6202 19.6783 49.845 19.5713 49.845 19.5713C50.5361 19.239 50.722 18.4563 50.3946 17.7526Z" fill="#003E5C"/>
</svg>
