<svg width="61" height="95" viewBox="0 0 61 95" fill="none" xmlns="http://www.w3.org/2000/svg">
<path d="M55.0146 56.0352H41.6553V36.1816H50.6543C55.514 36.1816 59.4678 32.2279 59.4678 27.3682V16.1426C59.4678 12.5614 56.5548 9.64844 52.9736 9.64844C49.3924 9.64844 46.4795 12.5614 46.4795 16.1426V20.1318C46.4795 21.4111 45.4394 22.4512 44.1602 22.4512H41.6553V11.5967C41.6553 5.20256 36.4534 0 30.0586 0C23.6645 0 18.4619 5.20256 18.4619 11.5967V24.2371C18.4619 25.0053 19.0852 25.6287 19.8535 25.6287C20.6218 25.6287 21.2451 25.0053 21.2451 24.2371V11.5967C21.2451 6.73695 25.1989 2.7832 30.0586 2.7832C34.9183 2.7832 38.8721 6.73695 38.8721 11.5967V56.0352H21.2451V30.7298C21.2451 29.9615 20.6218 29.3382 19.8535 29.3382C19.0852 29.3382 18.4619 29.9615 18.4619 30.7298V39.1192H15.9549C14.6756 39.1192 13.6355 38.0791 13.6355 36.7999V25.3888C13.6355 21.8083 10.7219 18.8946 7.14138 18.8946C3.56018 18.8946 0.64724 21.8083 0.64724 25.3888V44.0362C0.64724 48.896 4.60098 52.8497 9.46072 52.8497H18.4619V56.0352H14.5872C13.8189 56.0352 13.1956 56.6585 13.1956 57.4268C13.1956 58.195 13.8189 58.8184 14.5872 58.8184H55.0146C56.2939 58.8184 57.334 59.8584 57.334 61.1377V63.5498C57.334 64.8291 56.2939 65.8691 55.0146 65.8691H5.10254C3.82328 65.8691 2.7832 64.8291 2.7832 63.5498V61.1377C2.7832 59.8584 3.82328 58.8184 5.10254 58.8184H8.08434C8.85334 58.8184 9.47594 58.195 9.47594 57.4268C9.47594 56.6585 8.85334 56.0352 8.08434 56.0352H5.10254C2.28889 56.0352 0 58.3241 0 61.1377V63.5498C0 66.3634 2.28889 68.6523 5.10254 68.6523H7.51465V88.1108C7.51465 91.9095 10.632 95 14.4632 95H44.9118C48.743 95 51.8604 91.9095 51.8604 88.1108V81.9146C51.8604 81.1463 51.2378 80.523 50.4688 80.523C49.6997 80.523 49.0771 81.1463 49.0771 81.9146V88.1108C49.0771 90.3751 47.2086 92.2168 44.9118 92.2168H14.4632C12.1664 92.2168 10.2979 90.3751 10.2979 88.1108V68.6523H49.0771V75.4248C49.0771 76.1931 49.6997 76.8164 50.4688 76.8164C51.2378 76.8164 51.8604 76.1931 51.8604 75.4248V68.6523H55.0146C57.8283 68.6523 60.1172 66.3634 60.1172 63.5498V61.1377C60.1172 58.3241 57.8283 56.0352 55.0146 56.0352ZM44.1602 25.2344C46.9738 25.2344 49.2627 22.9455 49.2627 20.1318V16.1426C49.2627 14.0965 50.9275 12.4316 52.9736 12.4316C55.0197 12.4316 56.6846 14.0965 56.6846 16.1426V27.3682C56.6846 30.6935 53.9796 33.3984 50.6543 33.3984H41.6553V25.2344H44.1602ZM18.4597 50.0665H9.46072C6.13537 50.0665 3.43044 47.3616 3.43044 44.0362V25.3888C3.43044 23.3427 5.09529 21.6778 7.14138 21.6778C9.18747 21.6778 10.8523 23.3427 10.8523 25.3888V36.7999C10.8523 39.6135 13.1412 41.9024 15.9549 41.9024H18.4597V50.0665Z" fill="#8BAD3F"/>
</svg>
