<svg width="88" height="86" viewBox="0 0 88 86" fill="none" xmlns="http://www.w3.org/2000/svg">
<g clip-path="url(#clip0)">
<path d="M87.2113 1.82036C86.7224 1.53051 86.1129 1.51776 85.6093 1.77736L58.6667 15.7173L31.7256 1.77736C31.7044 1.76621 31.68 1.76302 31.6588 1.75347C31.5806 1.71684 31.5007 1.68976 31.4193 1.66588C31.3736 1.65313 31.3296 1.6388 31.284 1.62925C31.1944 1.61173 31.1031 1.60536 31.0102 1.60217C30.9695 1.60058 30.9287 1.5958 30.8864 1.59739C30.7984 1.60217 30.712 1.6181 30.6256 1.63721C30.5767 1.64676 30.5279 1.65313 30.4806 1.66747C30.4692 1.67065 30.4578 1.67065 30.448 1.67384L1.11467 11.2294C0.448148 11.446 0 12.0544 0 12.7408V81.2222C0 81.7335 0.250963 82.2144 0.677926 82.5154C0.958222 82.7113 1.2923 82.8148 1.62963 82.8148C1.80237 82.8148 1.97674 82.7878 2.14459 82.732L30.901 73.3644L58.0458 84.288C58.0686 84.2975 58.0947 84.2943 58.1175 84.3023C58.2967 84.3644 58.4793 84.4074 58.6667 84.4074C58.8133 84.4074 58.9584 84.3835 59.1001 84.3453C59.1458 84.3326 59.1881 84.3119 59.2338 84.2959C59.299 84.272 59.3674 84.2545 59.4293 84.2227L87.133 69.8894C87.6659 69.6138 88 69.0708 88 68.4815V3.18521C88 2.62621 87.7001 2.10862 87.2113 1.82036ZM3.25926 13.889L29.3333 5.39573V48.383C28.6326 48.5072 27.9416 48.6474 27.2735 48.8194C26.4033 49.0455 25.885 49.9167 26.1164 50.7671C26.3104 51.4806 26.9687 51.952 27.6907 51.952C27.8276 51.952 27.9693 51.9345 28.1095 51.8994C28.5006 51.7975 28.9276 51.7465 29.3333 51.6637V70.52L3.25926 79.0117V13.889ZM32.5926 51.2178C33.1157 51.178 33.6225 51.1127 34.1587 51.1015C35.0582 51.0824 35.772 50.3546 35.7541 49.4755C35.7345 48.6075 35.0093 47.9164 34.1244 47.9164C34.113 47.9164 34.1 47.9164 34.0886 47.9164C33.5834 47.9275 33.0864 47.9546 32.5926 47.988V5.8305L57.037 18.4773V52.2307C55.8735 52.1813 54.6904 52.0475 53.4502 51.8134C52.5637 51.643 51.7114 52.21 51.5403 53.0732C51.3692 53.9364 51.9477 54.7725 52.831 54.9397C54.2748 55.2136 55.6763 55.3474 57.0387 55.3999V80.4371L32.5926 70.5996V51.2178ZM84.7407 67.5212L60.2963 80.1679V55.2279C60.9025 54.9588 61.3067 54.3536 61.2529 53.6672C61.2056 53.0716 60.8145 52.5938 60.2963 52.3597V18.4773L84.7407 5.8305V67.5212Z" fill="#8BAD3F"/>
<path d="M17.9265 14.3335C13.4336 14.3335 9.77832 17.9057 9.77832 22.2965C9.77832 26.1426 12.5829 29.358 16.2968 30.0986V33.4446C16.2968 34.3253 17.0269 35.0372 17.9265 35.0372C18.826 35.0372 19.5561 34.3253 19.5561 33.4446V30.0986C23.27 29.358 26.0746 26.1426 26.0746 22.2965C26.0746 17.9057 22.4194 14.3335 17.9265 14.3335ZM17.9265 27.0742C15.2311 27.0742 13.0376 24.9306 13.0376 22.2965C13.0376 19.6623 15.2311 17.5187 17.9265 17.5187C20.6219 17.5187 22.8154 19.6623 22.8154 22.2965C22.8154 24.9306 20.6219 27.0742 17.9265 27.0742Z" fill="#8BAD3F"/>
<path d="M73.4474 44.0718C73.643 44.1466 73.8434 44.1801 74.0406 44.1801C74.6925 44.1801 75.3068 43.7963 75.5594 43.1672C76.3254 41.2577 76.9397 39.1013 77.3895 36.7586C77.5557 35.8954 76.9723 35.0641 76.0874 34.9C75.1976 34.7567 74.3519 35.3093 74.1856 36.1741C73.775 38.3209 73.216 40.283 72.525 42.0078C72.1975 42.8248 72.6098 43.7501 73.4474 44.0718Z" fill="#8BAD3F"/>
<path d="M20.8674 51.5077C18.9004 52.7132 17.1274 54.223 15.5955 55.9988C15.0154 56.6708 15.1034 57.6758 15.7911 58.2427C16.0974 58.4944 16.4706 58.617 16.8406 58.617C17.305 58.617 17.7646 58.4243 18.0872 58.0516C19.4007 56.5291 20.9179 55.2343 22.598 54.2071C23.3607 53.7389 23.5905 52.7562 23.113 52.0109C22.6355 51.2656 21.6284 51.0394 20.8674 51.5077Z" fill="#8BAD3F"/>
<path d="M14.059 60.9583C13.241 60.592 12.273 60.9376 11.8965 61.7371C10.2245 65.2822 9.81059 68.1441 9.79266 68.2652C9.67044 69.1363 10.293 69.9374 11.1844 70.0568C11.2593 70.068 11.3359 70.0727 11.4093 70.0727C12.2094 70.0727 12.9069 69.4962 13.0226 68.7015C13.0258 68.676 13.399 66.1582 14.8559 63.0733C15.2324 62.2722 14.8755 61.3278 14.059 60.9583Z" fill="#8BAD3F"/>
<path d="M65.8744 53.7167C66.1237 53.7167 66.3779 53.661 66.6142 53.5431C68.7197 52.4904 70.5759 50.9966 72.1289 49.1062C72.6928 48.4198 72.5803 47.4164 71.8779 46.867C71.1772 46.3207 70.1505 46.4274 69.5867 47.1122C68.3221 48.6523 66.8228 49.8611 65.1296 50.7067C64.3279 51.1081 64.0101 52.0668 64.4208 52.8504C64.7108 53.3998 65.2828 53.7167 65.8744 53.7167Z" fill="#8BAD3F"/>
<path d="M47.536 50.0584C46.8174 49.7638 46.3969 49.5599 46.3692 49.5456C46.2633 49.493 46.1508 49.45 46.0351 49.4214C44.2702 48.9786 42.5314 48.6283 40.8643 48.3798C39.9762 48.2429 39.1434 48.8433 39.0065 49.7128C38.8713 50.5824 39.4824 51.3962 40.3722 51.5284C41.8812 51.7545 43.4571 52.0699 45.0606 52.468C45.279 52.5699 45.6962 52.7626 46.2796 52.9999C46.4849 53.0843 46.6984 53.1226 46.907 53.1226C47.5442 53.1226 48.1504 52.7563 48.4111 52.1447C48.7582 51.3293 48.3671 50.396 47.536 50.0584Z" fill="#8BAD3F"/>
<path d="M76.4673 31.7422C76.5032 31.7438 76.5374 31.7454 76.5732 31.7454C77.4255 31.7454 78.1426 31.0988 78.198 30.2531C78.299 28.7226 78.3495 27.103 78.3495 25.4435C78.3495 24.8908 78.3447 24.3302 78.3332 23.7585C78.317 22.8778 77.5347 22.2089 76.6743 22.1946C75.7747 22.2105 75.0577 22.9367 75.074 23.8158C75.0838 24.3685 75.0903 24.9115 75.0903 25.4435C75.0903 27.0361 75.0414 28.5857 74.9452 30.0508C74.8882 30.9284 75.5694 31.6848 76.4673 31.7422Z" fill="#8BAD3F"/>
<path d="M13.5145 45.7187C13.8323 46.0293 14.2495 46.1853 14.6667 46.1853C15.0838 46.1853 15.501 46.0293 15.8188 45.7187L17.9259 43.6595L20.033 45.7187C20.3508 46.0293 20.768 46.1853 21.1852 46.1853C21.6024 46.1853 22.0195 46.0293 22.3373 45.7187C22.9745 45.096 22.9745 44.0895 22.3373 43.4668L20.2302 41.4076L22.3373 39.3483C22.9745 38.7256 22.9745 37.7191 22.3373 37.0964C21.7001 36.4737 20.6702 36.4737 20.033 37.0964L17.9259 39.1556L15.8188 37.0964C15.1816 36.4737 14.1517 36.4737 13.5145 37.0964C12.8773 37.7191 12.8773 38.7256 13.5145 39.3483L15.6216 41.4076L13.5145 43.4668C12.8773 44.0879 12.8773 45.096 13.5145 45.7187Z" fill="#8BAD3F"/>
</g>
<defs>
<clipPath id="clip0">
<rect width="88" height="86" fill="white"/>
</clipPath>
</defs>
</svg>
