<svg width="95" height="95" viewBox="0 0 95 95" fill="none" xmlns="http://www.w3.org/2000/svg">
<path d="M87.7342 41.0771C87.0828 37.5179 83.9626 34.8121 80.2229 34.8121C76.8804 34.8121 73.9538 37.0182 72.9544 40.117C68.8024 40.1855 65.4461 43.5892 65.4461 47.763C65.4461 51.9797 68.8716 55.4101 73.0823 55.4101C74.1658 55.4101 75.8848 55.5342 77.7388 55.6882C76.7733 56.9329 75.2818 57.6884 73.6489 57.6884H61.6145C58.7783 57.6884 56.056 59.0347 54.3324 61.29L54.1692 61.5035C50.3955 54.5254 43.5275 49.4663 35.3191 48.1881C33.918 47.97 32.9284 46.647 33.1132 45.2392C33.2908 43.8858 34.4486 42.9014 35.8146 42.9478L47.833 43.3635C55.2502 43.6211 61.7294 38.5338 63.2596 31.2706L63.3415 30.8818H70.8599C71.6273 30.8818 72.249 30.259 72.249 29.4908C72.249 28.7225 71.6273 28.0997 70.8599 28.0997C65.0562 28.0997 49.1847 28.0997 44.1908 28.0997C39.6007 28.0997 35.8666 24.36 35.8666 19.7637C35.8666 15.1673 39.6007 11.4277 44.1908 11.4277C47.1216 11.4277 47.6261 12.7233 48.7563 11.9495C49.4548 11.4709 49.354 10.6986 49.3579 10.6801C49.2118 6.5257 52.6684 2.78181 57.1025 2.78181C60.7209 2.78181 63.9042 5.34809 64.6717 8.88406C64.7647 9.31196 65.0532 9.67105 65.4507 9.85337C66.6328 10.3955 67.0123 9.09106 69.5325 9.09106C72.4785 9.09106 74.9526 11.202 75.4153 14.1105C75.5283 14.8216 76.1669 15.3285 76.8824 15.2796C80.6326 15.0204 83.7417 18.0039 83.7417 21.681C83.7417 24.918 81.3255 27.6558 78.1215 28.0496C78.0396 28.0596 77.96 28.0767 77.8835 28.1002H76.0458C75.2784 28.1002 74.6567 28.7231 74.6567 29.4913C74.6567 30.2596 75.2784 30.8824 76.0458 30.8824C78.1433 30.8446 78.4089 30.9753 78.8857 30.7487C83.2673 30.0014 86.5199 26.177 86.5199 21.681C86.5199 16.7951 82.6969 12.7864 77.8894 12.4964C76.4668 7.78288 71.4919 5.27186 66.9089 6.71229C65.3546 2.74138 61.4608 0 57.1025 0C51.8448 0 47.4752 3.87966 46.6989 8.93062C39.7237 7.31528 33.0884 12.648 33.0884 19.7642C33.0884 25.8949 38.0688 30.8824 44.1908 30.8824H51.9565C49.8848 32.3408 47.4015 33.1434 44.8064 33.1434H35.4228C28.4371 33.1434 22.5548 37.9597 20.9099 44.4504C20.6113 44.1703 16.166 42.4359 16.166 37.4411V33.8501C18.4219 33.6561 20.6228 33.4791 21.9175 33.4791C26.1282 33.4791 29.5537 30.0487 29.5537 25.832C29.5537 21.658 26.1974 18.2545 22.0455 18.1858C21.0459 15.087 18.1194 12.8811 14.7769 12.8811C11.0374 12.8811 7.91685 15.5867 7.26563 19.146C3.22645 19.3401 0 22.6918 0 26.7839C0 31.0005 3.42556 34.431 7.63625 34.431C9.07093 34.431 11.1809 34.2744 13.3877 34.0886V37.4406C13.3877 40.9691 15.2631 44.2921 18.2815 46.1124L20.4685 47.4314C20.1285 54.7478 25.1063 61.2208 32.2166 62.782C34.7359 63.3351 36.5645 65.6111 36.5645 68.1939C36.5645 68.9621 37.1865 69.585 37.9536 69.585C38.7208 69.585 39.3427 68.9621 39.3427 68.1939C39.3427 64.3142 36.596 60.8951 32.8115 60.0642C27.2589 58.8452 23.229 53.8287 23.229 48.1362C23.229 41.4029 28.6991 35.925 35.4228 35.925H44.8064C49.1456 35.925 53.2319 34.0953 56.1205 30.8818H60.5008C59.1793 36.7213 53.9162 40.7914 47.929 40.5829L35.9105 40.1673C33.1173 40.0736 30.7237 42.0951 30.3587 44.8768C29.9788 47.7702 32.0126 50.4892 34.8924 50.9375C45.3571 52.5669 53.3834 61.077 54.4109 71.6325L55.623 84.084H39.3427V72.7004C39.3427 71.9322 38.7208 71.3094 37.9536 71.3094C37.1865 71.3094 36.5645 71.9322 36.5645 72.7004V84.084H19.901C16.8957 84.084 14.4509 86.5325 14.4509 89.5419C14.4509 92.5515 16.8959 95 19.901 95H75.2686C78.2739 95 80.719 92.5515 80.719 89.5419C80.719 86.5323 78.2739 84.084 75.2686 84.084H58.4146C57.1227 73.0608 57.6015 69.7124 55.4924 64.3496C56.0184 63.8574 57.5885 60.4705 61.6147 60.4705H73.6491C76.7387 60.4705 79.503 58.7129 80.8258 55.953C83.3107 56.1667 85.7592 56.3624 87.3637 56.3624C91.5744 56.3624 95 52.9317 95 48.7153C95 44.623 91.7737 41.2713 87.7342 41.0771ZM2.77823 26.7839C2.77823 24.1013 4.95748 21.919 7.63625 21.919C8.29506 21.919 8.84126 22.1688 9.44544 21.6404C9.7503 21.3735 9.93589 20.9827 9.91885 20.5153C9.9257 17.8384 12.1024 15.6629 14.7769 15.6629C17.1836 15.6629 19.2509 17.4597 19.5858 19.8423C19.6932 20.6065 20.4032 21.1407 21.1725 21.0235C24.1308 20.5672 26.7755 22.868 26.7755 25.8316C26.7755 28.5142 24.5962 30.6966 21.9175 30.6966C18.6938 30.6966 10.9942 31.649 7.63625 31.649C4.95748 31.6488 2.77823 29.4665 2.77823 26.7839ZM77.9405 89.5421C77.9405 91.0176 76.7418 92.218 75.2684 92.218H19.9009C18.4275 92.218 17.2289 91.0176 17.2289 89.5421C17.2289 88.0666 18.4276 86.8664 19.9009 86.8664C24.2112 86.8664 68.6285 86.8664 75.2684 86.8664C76.7418 86.8662 77.9405 88.0666 77.9405 89.5421ZM87.3636 53.5804C84.0125 53.5804 76.3003 52.6279 73.0825 52.6279C70.4037 52.6279 68.2245 50.4456 68.2245 47.763C68.2245 44.8009 70.8673 42.4987 73.8276 42.9548C74.5974 43.0726 75.3071 42.5371 75.4142 41.7737C75.7491 39.3911 77.8164 37.5943 80.2231 37.5943C82.9019 37.5943 85.0812 39.7767 85.0812 42.4494C85.0847 42.468 85.0109 43.0919 85.5501 43.5677C85.8552 43.837 86.2621 43.959 86.6659 43.901C89.6563 43.472 92.2218 45.804 92.2218 48.7151C92.2218 51.3978 90.0423 53.5804 87.3636 53.5804Z" fill="#8BAD3F"/>
</svg>
