<svg width="95" height="95" viewBox="0 0 95 95" fill="none" xmlns="http://www.w3.org/2000/svg">
<path d="M94.7466 92.4951L86.8601 79.6986C86.7592 79.5348 86.7917 79.3836 86.8366 79.2857C86.8815 79.1878 86.972 79.0712 87.1481 79.0712H90.9692C91.4925 79.0712 91.9721 78.7409 92.2139 78.2145C92.4557 77.6882 92.4193 77.0526 92.1195 76.5663L84.8744 64.8102C84.7735 64.6464 84.8059 64.4957 84.8508 64.3978C84.8957 64.3001 84.9863 64.1833 85.1624 64.1833H89.6253C90.1486 64.1833 90.6282 63.8529 90.87 63.3266C91.1117 62.8003 91.0754 62.1647 90.7755 61.6783L75.8783 37.5052C75.6158 37.0791 75.1862 36.8254 74.7283 36.8254C74.2702 36.8254 73.8407 37.0791 73.5783 37.5052L69.1515 44.6884L48.8406 0.8514C48.5979 0.327802 48.1196 0 47.5982 0C47.0768 0 46.5985 0.327802 46.3558 0.8514L25.961 44.8707L21.422 37.5054C21.1594 37.0793 20.7299 36.8256 20.2719 36.8256C19.8138 36.8256 19.3843 37.0793 19.1219 37.5054L4.22418 61.6783C3.92433 62.1649 3.88796 62.8001 4.12973 63.3266C4.3715 63.8529 4.85114 64.1833 5.37438 64.1833H9.83734C10.0134 64.1833 10.104 64.3001 10.1491 64.398C10.194 64.4957 10.2264 64.6466 10.1253 64.8104L2.88063 76.5663C2.58079 77.0528 2.54442 77.688 2.78619 78.2145C3.02795 78.7409 3.50759 79.0712 4.03084 79.0712H7.85218C8.02826 79.0712 8.11881 79.1878 8.16371 79.2857C8.20861 79.3836 8.24108 79.5348 8.14015 79.6986L0.253285 92.4951C-0.0465592 92.9816 -0.0829264 93.6168 0.158841 94.1433C0.400609 94.6697 0.880248 95 1.40349 95H26.2943H39.1399H55.8604H68.9025H93.5966C94.1198 95 94.5995 94.6697 94.8412 94.1433C95.0828 93.617 95.0466 92.9816 94.7466 92.4951ZM47.5984 5.0145L53.2045 17.1141L47.5984 21.8676L41.9923 17.1143L47.5984 5.0145ZM40.6697 19.969L46.7582 25.1313C47.0072 25.3424 47.3028 25.4481 47.5982 25.4481C47.8936 25.4481 48.1892 25.3426 48.4382 25.1313L54.5267 19.969L67.3406 47.6262L63.3504 54.1006L48.748 30.4064C48.4855 29.9803 48.0559 29.7266 47.598 29.7266C47.1397 29.7266 46.7104 29.9803 46.448 30.4064L31.7477 54.2602L27.7716 47.8083L40.6697 19.969ZM25.563 91.8155H4.09763L10.44 81.5237C11.1172 80.4247 11.1987 79.0034 10.6526 77.8141C10.1068 76.625 9.03337 75.8864 7.85162 75.8864H6.72424L12.4252 66.636C13.1024 65.5372 13.1841 64.1161 12.6382 62.9266C12.0921 61.7373 11.0189 60.9987 9.83697 60.9987H8.06815L20.2716 41.1971L30.0347 57.0392L29.6272 57.7003C29.3274 58.1868 29.291 58.822 29.5328 59.3486C29.7746 59.8749 30.2542 60.2052 30.7774 60.2052H31.9857L32.4746 60.9987H30.7058C29.5241 60.9987 28.4509 61.7375 27.9048 62.9266C27.3589 64.1159 27.4404 65.537 28.1176 66.6358L30.5399 70.5665L28.1096 74.5102C27.8098 74.9965 27.7734 75.6319 28.0152 76.1584C28.257 76.6848 28.7366 77.0151 29.2598 77.0151H30.3893C30.1946 77.2507 30.026 77.5185 29.8902 77.8145C29.3441 79.0038 29.4257 80.4251 30.103 81.5239L31.004 82.9861L25.563 91.8155ZM34.4739 64.1837L32.2529 67.7876L30.4182 64.8106C30.3173 64.6469 30.3498 64.4959 30.3947 64.398C30.4396 64.3003 30.5301 64.1835 30.7062 64.1835H34.4739V64.1837ZM55.86 91.8153H39.1395H28.988L36.3487 79.8716C37.0743 78.6941 37.1617 77.1707 36.5765 75.8963C35.9913 74.6218 34.8413 73.8301 33.5746 73.8301H31.9538L38.5901 63.0617C39.3158 61.884 39.4031 60.3606 38.8179 59.086C38.2327 57.8117 37.0825 57.02 35.816 57.02H33.471L47.5976 34.0979L61.7241 57.02H59.3791C58.1126 57.02 56.9626 57.8119 56.3773 59.086C55.7921 60.3602 55.8795 61.8838 56.6052 63.0617L63.2415 73.8301H61.6209C60.3542 73.8301 59.2042 74.622 58.6189 75.8963C58.4219 76.3254 58.3031 76.7829 58.2571 77.2454C58.2516 77.2894 58.2475 77.3339 58.2447 77.3785C58.1857 78.2476 58.3889 79.1282 58.8466 79.8714L66.2073 91.815H55.86V91.8153ZM32.3798 79.2857C32.4247 79.1878 32.5153 79.0712 32.6914 79.0712H33.4165L32.7168 80.2068L32.4036 79.6986C32.3026 79.5348 32.3349 79.3836 32.3798 79.2857ZM35.4111 60.2048H35.8167C36.1217 60.2048 36.2689 60.4259 36.329 60.5574C36.3897 60.6892 36.465 60.9528 36.29 61.2364L36.1683 61.4337L35.4111 60.2048ZM64.2937 64.1835C64.4698 64.1835 64.5603 64.3001 64.6052 64.398C64.6501 64.4959 64.6826 64.6469 64.5815 64.8106L62.8453 67.628L60.7225 64.1837H64.2937V64.1835ZM59.5886 60.205L58.9296 61.2745L58.9064 61.2364C58.7314 60.9528 58.8069 60.6892 58.8674 60.5576C58.9279 60.4261 59.0746 60.205 59.3797 60.205H59.5886ZM62.5961 79.6986L62.3811 80.0474L61.7797 79.0714H62.3084C62.4844 79.0714 62.575 79.1882 62.6199 79.2859C62.665 79.3836 62.6971 79.5348 62.5961 79.6986ZM69.6336 91.815V91.8153L64.0939 82.8265L64.8967 81.5239C65.574 80.4251 65.6556 79.0038 65.1096 77.8145C64.9737 77.5187 64.8051 77.2507 64.6104 77.0151H65.9364C66.4596 77.0151 66.9392 76.6848 67.181 76.1584C67.4228 75.6321 67.3864 74.9965 67.0866 74.5102L64.5581 70.4073L66.8819 66.636C67.5593 65.5372 67.641 64.1159 67.0951 62.9266C66.549 61.7373 65.4758 60.9987 64.2939 60.9987H62.5251L63.014 60.2052H64.419C64.9422 60.2052 65.4218 59.8749 65.6636 59.3486C65.9054 58.8222 65.869 58.1866 65.5692 57.7003L65.0635 56.8798L74.7283 41.1973L86.9317 60.9989H85.1629C83.9812 60.9989 82.9078 61.7377 82.3619 62.927C81.8158 64.1163 81.8977 65.5376 82.5747 66.6362L88.2757 75.8869H87.1487C85.9671 75.8869 84.8937 76.6256 84.3476 77.8145C83.8016 79.0036 83.883 80.4251 84.5603 81.5241L90.9028 91.8157H69.6336V91.815Z" fill="#8BAD3F"/>
</svg>
