<svg width="95" height="95" viewBox="0 0 95 95" fill="none" xmlns="http://www.w3.org/2000/svg">
<path d="M94.9857 17.8998C95.1089 16.8219 94.4218 15.8328 93.4332 15.6638C90.6268 15.1842 87.8117 15.1779 85.0365 15.6386C85.1184 12.6172 84.7712 9.56431 83.9812 6.56411C83.7065 5.52002 82.7164 4.90205 81.7466 5.16465C77.9313 6.20088 74.3653 8.12239 71.3132 10.7633C69.9013 6.97216 67.7581 3.50652 64.9568 0.566075C64.2378 -0.188692 63.0955 -0.188692 62.3765 0.566075C59.5752 3.50652 57.432 6.97216 56.0201 10.7633C52.9679 8.12239 49.4012 6.20167 45.5866 5.16465C44.6161 4.90205 43.6268 5.52081 43.3521 6.5649C42.5621 9.56431 42.2149 12.618 42.2968 15.6394C39.5208 15.1787 36.7057 15.185 33.9001 15.6646C32.9107 15.8336 32.2236 16.8227 32.3468 17.9006C33.2101 25.4467 36.5978 32.1751 41.9351 37.0064C39.4832 38.4231 36.036 41.0578 32.9999 45.7334C32.6715 46.2373 32.5759 46.8773 32.7382 47.4678C32.9013 48.059 33.305 48.537 33.8334 48.7642C38.4395 50.7408 42.6904 51.3902 46.2897 51.3902C50.6363 51.3902 54.0305 50.4428 55.9498 49.7399C57.2653 52.3116 59.241 54.6671 61.8112 56.6916V64.5656C60.2021 62.6181 58.0922 60.8342 55.5192 59.2759C49.4099 55.576 41.3278 53.5381 32.7614 53.5381C24.1944 53.5381 16.1122 55.576 10.0029 59.2759C3.55222 63.1826 0 68.5069 0 74.2691C0 80.0305 3.55222 85.3555 10.0029 89.2622C16.1122 92.9621 24.1944 95 32.7607 95C42.1134 95 51.0197 92.5093 57.195 88.1678C57.7581 87.7715 58.0799 87.0773 58.0372 86.3508C57.9951 85.6244 57.5943 84.9797 56.9891 84.6644L40.9067 76.2818H61.8112V84.9364C61.8112 86.0481 62.6418 86.9492 63.6666 86.9492C64.6908 86.9492 65.5221 86.0481 65.5221 84.9364V56.6909C68.0922 54.6664 70.068 52.3116 71.3828 49.7399C73.302 50.4428 76.6963 51.3902 81.0436 51.3902C84.6422 51.3894 88.8945 50.74 93.4992 48.7635C94.0283 48.5362 94.432 48.059 94.5943 47.4678C94.7574 46.8765 94.661 46.2373 94.3334 45.7326C91.2965 41.057 87.8501 38.4224 85.3974 37.0056C90.7355 32.1751 94.1232 25.4459 94.9857 17.8998ZM32.7607 72.2564C31.8953 72.2564 31.1444 72.9058 30.9516 73.8217C30.7595 74.7377 31.177 75.6764 31.9576 76.0829L52.1678 86.6174C46.842 89.4108 39.9702 90.9746 32.7607 90.9746C28.7388 90.9746 24.8467 90.4973 21.2604 89.59L29.0034 81.1917C29.7274 80.4055 29.7274 79.131 29.0034 78.3448C28.2786 77.5594 27.1037 77.5594 26.3789 78.3448L17.1827 88.3211C15.2533 87.5994 13.4507 86.7392 11.812 85.747C6.58838 82.5833 3.71095 78.5068 3.71095 74.2691C3.71095 70.0306 6.58838 65.9541 11.812 62.7903C13.4507 61.7981 15.2533 60.938 17.182 60.2163L25.0786 68.7821C25.441 69.1752 25.9157 69.3717 26.3905 69.3717C26.8652 69.3717 27.34 69.1744 27.7024 68.7821C28.4271 67.9959 28.4271 66.7214 27.7024 65.9352L21.2604 58.9481C24.8467 58.0408 28.7388 57.5636 32.7607 57.5636C40.7044 57.5636 48.1444 59.4198 53.7101 62.7903C58.1002 65.4501 60.8334 68.7538 61.5937 72.2564H32.7607ZM91.0022 19.403C89.8542 25.5371 86.7281 30.9266 82.0677 34.7342C79.3389 36.9639 76.2752 38.4955 73.0491 39.2825C76.4252 36.8035 79.2657 33.5054 81.3712 29.5499C83.007 26.475 84.1044 23.1824 84.6494 19.7969C86.7455 19.3543 88.8721 19.2206 91.0022 19.403ZM80.8566 9.63822C82.0104 15.7707 81.074 22.0565 78.1567 27.5372C76.0476 31.4997 73.0846 34.6996 69.536 36.9175C71.9851 32.4157 73.2912 27.2707 73.2912 21.8882C73.2912 19.5044 73.0331 17.1686 72.5359 14.9129C74.9372 12.5598 77.7784 10.7601 80.8566 9.63822ZM63.6666 4.92092C67.4935 9.60677 69.5802 15.5584 69.5802 21.8882C69.5802 28.2173 67.4935 34.1689 63.6666 38.8548C59.8397 34.1689 57.753 28.2173 57.753 21.8882C57.753 15.5584 59.8397 9.60677 63.6666 4.92092ZM46.476 9.63822C49.5542 10.7601 52.3961 12.5598 54.7973 14.9129C54.2994 17.1678 54.0421 19.5044 54.0421 21.8875C54.0421 27.2699 55.3474 32.4157 57.7965 36.9175C54.2479 34.6996 51.285 31.4997 49.1758 27.5372C46.2585 22.0565 45.3228 15.7707 46.476 9.63822ZM36.3303 19.403C38.4605 19.2206 40.5877 19.3543 42.6838 19.7969C43.2282 23.1824 44.3255 26.4758 45.9621 29.5499C48.0669 33.5054 50.9074 36.8035 54.2827 39.2825C51.0574 38.4955 47.9937 36.9639 45.2656 34.735C40.6051 30.9266 37.4784 25.5371 36.3303 19.403ZM37.5704 45.9213C40.7153 41.9989 44.0015 40.2912 45.4112 39.6937C48.122 41.4674 51.0559 42.6986 54.1059 43.359C54.182 44.2506 54.3277 45.1288 54.5422 45.992C51.7257 46.9662 45.3279 48.4906 37.5704 45.9213ZM63.6666 53.1749C60.4514 50.5372 58.4626 47.3176 57.911 43.8818C58.4104 43.9109 58.9113 43.9274 59.4143 43.9274C60.6239 43.9274 61.8416 43.8394 63.0614 43.6641C63.2571 43.7372 63.4615 43.7765 63.6666 43.7765C63.871 43.7765 64.0754 43.7372 64.2711 43.6641C65.4917 43.8394 66.7086 43.9274 67.919 43.9274C68.4213 43.9274 68.9228 43.9117 69.4222 43.8818C69.2896 44.7081 69.0729 45.5211 68.7764 46.3175C68.7764 46.3191 68.7757 46.3199 68.775 46.3215C68.7445 46.3899 68.7192 46.4598 68.696 46.5298C67.7436 48.9639 66.0396 51.2282 63.6666 53.1749ZM89.7621 45.9213C82.0025 48.4914 75.604 46.9654 72.7903 45.9928C73.0049 45.1296 73.1513 44.2506 73.2274 43.359C76.2773 42.6986 79.2113 41.4674 81.9213 39.6937C83.3317 40.2912 86.618 41.9989 89.7621 45.9213Z" fill="#8BAD3F"/>
</svg>
